<?xml version="1.0" encoding="utf-8"?>
<svg xmlns="http://www.w3.org/2000/svg" xmlns:xlink="http://www.w3.org/1999/xlink" width="600" height="400" viewBox="0 0 2400 1600">
<defs>
  <clipPath id="clip990">
    <rect x="0" y="0" width="2400" height="1600"/>
  </clipPath>
</defs>
<path clip-path="url(#clip990)" d="M0 1600 L2400 1600 L2400 0 L0 0  Z" fill="#ffffff" fill-rule="evenodd" fill-opacity="1"/>
<defs>
  <clipPath id="clip991">
    <rect x="480" y="0" width="1681" height="1600"/>
  </clipPath>
</defs>
<path clip-path="url(#clip990)" d="M275.451 1360.19 L2289.76 1360.19 L2289.76 110.236 L275.451 110.236  Z" fill="#ffffff" fill-rule="evenodd" fill-opacity="1"/>
<defs>
  <clipPath id="clip992">
    <rect x="275" y="110" width="2015" height="1251"/>
  </clipPath>
</defs>
<polyline clip-path="url(#clip990)" style="stroke:#000000; stroke-linecap:round; stroke-linejoin:round; stroke-width:4; stroke-opacity:1; fill:none" points="275.451,1360.19 2289.76,1360.19 "/>
<polyline clip-path="url(#clip990)" style="stroke:#000000; stroke-linecap:round; stroke-linejoin:round; stroke-width:4; stroke-opacity:1; fill:none" points="522.489,1360.19 522.489,1341.29 "/>
<polyline clip-path="url(#clip990)" style="stroke:#000000; stroke-linecap:round; stroke-linejoin:round; stroke-width:4; stroke-opacity:1; fill:none" points="902.548,1360.19 902.548,1341.29 "/>
<polyline clip-path="url(#clip990)" style="stroke:#000000; stroke-linecap:round; stroke-linejoin:round; stroke-width:4; stroke-opacity:1; fill:none" points="1282.61,1360.19 1282.61,1341.29 "/>
<polyline clip-path="url(#clip990)" style="stroke:#000000; stroke-linecap:round; stroke-linejoin:round; stroke-width:4; stroke-opacity:1; fill:none" points="1662.67,1360.19 1662.67,1341.29 "/>
<polyline clip-path="url(#clip990)" style="stroke:#000000; stroke-linecap:round; stroke-linejoin:round; stroke-width:4; stroke-opacity:1; fill:none" points="2042.73,1360.19 2042.73,1341.29 "/>
<path clip-path="url(#clip990)" d="M491.39 1405.76 L521.066 1405.76 L521.066 1409.69 L491.39 1409.69 L491.39 1405.76 Z" fill="#000000" fill-rule="nonzero" fill-opacity="1" /><path clip-path="url(#clip990)" d="M544.005 1392.1 L532.2 1410.55 L544.005 1410.55 L544.005 1392.1 M542.779 1388.03 L548.658 1388.03 L548.658 1410.55 L553.589 1410.55 L553.589 1414.44 L548.658 1414.44 L548.658 1422.59 L544.005 1422.59 L544.005 1414.44 L528.404 1414.44 L528.404 1409.93 L542.779 1388.03 Z" fill="#000000" fill-rule="nonzero" fill-opacity="1" /><path clip-path="url(#clip990)" d="M872.491 1405.76 L902.166 1405.76 L902.166 1409.69 L872.491 1409.69 L872.491 1405.76 Z" fill="#000000" fill-rule="nonzero" fill-opacity="1" /><path clip-path="url(#clip990)" d="M916.287 1418.65 L932.606 1418.65 L932.606 1422.59 L910.662 1422.59 L910.662 1418.65 Q913.324 1415.9 917.907 1411.27 Q922.514 1406.62 923.694 1405.27 Q925.939 1402.75 926.819 1401.01 Q927.722 1399.25 927.722 1397.56 Q927.722 1394.81 925.777 1393.07 Q923.856 1391.34 920.754 1391.34 Q918.555 1391.34 916.102 1392.1 Q913.671 1392.87 910.893 1394.42 L910.893 1389.69 Q913.717 1388.56 916.171 1387.98 Q918.625 1387.4 920.662 1387.4 Q926.032 1387.4 929.226 1390.09 Q932.421 1392.77 932.421 1397.26 Q932.421 1399.39 931.611 1401.31 Q930.824 1403.21 928.717 1405.81 Q928.139 1406.48 925.037 1409.69 Q921.935 1412.89 916.287 1418.65 Z" fill="#000000" fill-rule="nonzero" fill-opacity="1" /><path clip-path="url(#clip990)" d="M1282.61 1391.11 Q1279 1391.11 1277.17 1394.67 Q1275.36 1398.21 1275.36 1405.34 Q1275.36 1412.45 1277.17 1416.01 Q1279 1419.56 1282.61 1419.56 Q1286.24 1419.56 1288.05 1416.01 Q1289.88 1412.45 1289.88 1405.34 Q1289.88 1398.21 1288.05 1394.67 Q1286.24 1391.11 1282.61 1391.11 M1282.61 1387.4 Q1288.42 1387.4 1291.47 1392.01 Q1294.55 1396.59 1294.55 1405.34 Q1294.55 1414.07 1291.47 1418.68 Q1288.42 1423.26 1282.61 1423.26 Q1276.8 1423.26 1273.72 1418.68 Q1270.66 1414.07 1270.66 1405.34 Q1270.66 1396.59 1273.72 1392.01 Q1276.8 1387.4 1282.61 1387.4 Z" fill="#000000" fill-rule="nonzero" fill-opacity="1" /><path clip-path="url(#clip990)" d="M1657.32 1418.65 L1673.64 1418.65 L1673.64 1422.59 L1651.69 1422.59 L1651.69 1418.65 Q1654.36 1415.9 1658.94 1411.27 Q1663.55 1406.62 1664.73 1405.27 Q1666.97 1402.75 1667.85 1401.01 Q1668.75 1399.25 1668.75 1397.56 Q1668.75 1394.81 1666.81 1393.07 Q1664.89 1391.34 1661.79 1391.34 Q1659.59 1391.34 1657.13 1392.1 Q1654.7 1392.87 1651.93 1394.42 L1651.93 1389.69 Q1654.75 1388.56 1657.2 1387.98 Q1659.66 1387.4 1661.69 1387.4 Q1667.06 1387.4 1670.26 1390.09 Q1673.45 1392.77 1673.45 1397.26 Q1673.45 1399.39 1672.64 1401.31 Q1671.86 1403.21 1669.75 1405.81 Q1669.17 1406.48 1666.07 1409.69 Q1662.97 1412.89 1657.32 1418.65 Z" fill="#000000" fill-rule="nonzero" fill-opacity="1" /><path clip-path="url(#clip990)" d="M2045.73 1392.1 L2033.93 1410.55 L2045.73 1410.55 L2045.73 1392.1 M2044.51 1388.03 L2050.39 1388.03 L2050.39 1410.55 L2055.32 1410.55 L2055.32 1414.44 L2050.39 1414.44 L2050.39 1422.59 L2045.73 1422.59 L2045.73 1414.44 L2030.13 1414.44 L2030.13 1409.93 L2044.51 1388.03 Z" fill="#000000" fill-rule="nonzero" fill-opacity="1" /><path clip-path="url(#clip990)" d="M1290.17 1465.07 Q1290.17 1465.26 1289.97 1466.04 L1253.1 1507.26 L1264.37 1507.26 Q1267.69 1507.26 1270.2 1506.68 Q1272.71 1506.07 1274.45 1505.04 Q1276.19 1504.01 1277.54 1502.24 Q1278.93 1500.43 1279.83 1498.47 Q1280.73 1496.47 1281.66 1493.54 Q1282.02 1492.41 1282.18 1492.15 Q1282.34 1491.9 1282.76 1491.9 Q1283.18 1491.9 1283.4 1492.15 Q1283.63 1492.38 1283.63 1492.64 Q1283.63 1492.77 1283.56 1492.96 Q1283.53 1493.12 1283.47 1493.31 Q1283.4 1493.51 1283.37 1493.6 L1278.67 1508.19 Q1278.38 1509.13 1278.09 1509.32 Q1277.8 1509.51 1276.64 1509.51 L1247.94 1509.51 Q1246.95 1509.51 1246.62 1509.45 Q1246.3 1509.35 1246.3 1508.93 L1246.56 1507.74 L1283.44 1466.52 L1272.68 1466.52 Q1269.65 1466.52 1267.27 1467.07 Q1264.92 1467.58 1263.24 1468.55 Q1261.57 1469.48 1260.28 1471.06 Q1258.99 1472.61 1258.12 1474.41 Q1257.25 1476.18 1256.45 1478.66 L1256.35 1478.82 Q1256.25 1478.98 1256.19 1479.08 Q1256.12 1479.14 1255.96 1479.24 Q1255.8 1479.3 1255.61 1479.3 Q1255.26 1479.3 1255.03 1479.11 Q1254.84 1478.92 1254.84 1478.72 L1254.8 1478.56 Q1254.87 1477.98 1255 1477.66 L1258.64 1465.78 Q1258.93 1464.84 1259.22 1464.65 Q1259.51 1464.46 1260.67 1464.46 L1288.52 1464.46 Q1289.55 1464.46 1289.84 1464.55 Q1290.17 1464.65 1290.17 1465.07 Z" fill="#000000" fill-rule="nonzero" fill-opacity="1" /><path clip-path="url(#clip990)" d="M1296.78 1447.67 L1296.78 1446.23 Q1302.33 1446.23 1305.19 1443.28 Q1305.98 1443.28 1306.11 1443.46 Q1306.25 1443.64 1306.25 1444.47 L1306.25 1470.37 Q1306.25 1471.75 1306.92 1472.18 Q1307.6 1472.61 1310.55 1472.61 L1312.02 1472.61 L1312.02 1474.03 Q1310.4 1473.89 1304.53 1473.89 Q1298.67 1473.89 1297.07 1474.03 L1297.07 1472.61 L1298.54 1472.61 Q1301.45 1472.61 1302.14 1472.2 Q1302.84 1471.77 1302.84 1470.37 L1302.84 1446.46 Q1300.43 1447.67 1296.78 1447.67 Z" fill="#000000" fill-rule="nonzero" fill-opacity="1" /><polyline clip-path="url(#clip990)" style="stroke:#000000; stroke-linecap:round; stroke-linejoin:round; stroke-width:4; stroke-opacity:1; fill:none" points="275.451,1360.19 275.451,110.236 "/>
<polyline clip-path="url(#clip990)" style="stroke:#000000; stroke-linecap:round; stroke-linejoin:round; stroke-width:4; stroke-opacity:1; fill:none" points="275.451,1282.42 294.349,1282.42 "/>
<polyline clip-path="url(#clip990)" style="stroke:#000000; stroke-linecap:round; stroke-linejoin:round; stroke-width:4; stroke-opacity:1; fill:none" points="275.451,1087.68 294.349,1087.68 "/>
<polyline clip-path="url(#clip990)" style="stroke:#000000; stroke-linecap:round; stroke-linejoin:round; stroke-width:4; stroke-opacity:1; fill:none" points="275.451,892.94 294.349,892.94 "/>
<polyline clip-path="url(#clip990)" style="stroke:#000000; stroke-linecap:round; stroke-linejoin:round; stroke-width:4; stroke-opacity:1; fill:none" points="275.451,698.202 294.349,698.202 "/>
<polyline clip-path="url(#clip990)" style="stroke:#000000; stroke-linecap:round; stroke-linejoin:round; stroke-width:4; stroke-opacity:1; fill:none" points="275.451,503.464 294.349,503.464 "/>
<polyline clip-path="url(#clip990)" style="stroke:#000000; stroke-linecap:round; stroke-linejoin:round; stroke-width:4; stroke-opacity:1; fill:none" points="275.451,308.726 294.349,308.726 "/>
<polyline clip-path="url(#clip990)" style="stroke:#000000; stroke-linecap:round; stroke-linejoin:round; stroke-width:4; stroke-opacity:1; fill:none" points="275.451,113.989 294.349,113.989 "/>
<path clip-path="url(#clip990)" d="M178.734 1282.87 L208.41 1282.87 L208.41 1286.8 L178.734 1286.8 L178.734 1282.87 Z" fill="#000000" fill-rule="nonzero" fill-opacity="1" /><path clip-path="url(#clip990)" d="M218.548 1265.14 L236.905 1265.14 L236.905 1269.07 L222.831 1269.07 L222.831 1277.54 Q223.849 1277.2 224.868 1277.03 Q225.886 1276.85 226.905 1276.85 Q232.692 1276.85 236.071 1280.02 Q239.451 1283.19 239.451 1288.61 Q239.451 1294.19 235.979 1297.29 Q232.507 1300.37 226.187 1300.37 Q224.011 1300.37 221.743 1300 Q219.497 1299.63 217.09 1298.88 L217.09 1294.19 Q219.173 1295.32 221.396 1295.88 Q223.618 1296.43 226.095 1296.43 Q230.099 1296.43 232.437 1294.32 Q234.775 1292.22 234.775 1288.61 Q234.775 1285 232.437 1282.89 Q230.099 1280.78 226.095 1280.78 Q224.22 1280.78 222.345 1281.2 Q220.493 1281.62 218.548 1282.5 L218.548 1265.14 Z" fill="#000000" fill-rule="nonzero" fill-opacity="1" /><path clip-path="url(#clip990)" d="M177.252 1088.13 L206.928 1088.13 L206.928 1092.06 L177.252 1092.06 L177.252 1088.13 Z" fill="#000000" fill-rule="nonzero" fill-opacity="1" /><path clip-path="url(#clip990)" d="M229.868 1074.47 L218.062 1092.92 L229.868 1092.92 L229.868 1074.47 M228.641 1070.4 L234.52 1070.4 L234.52 1092.92 L239.451 1092.92 L239.451 1096.81 L234.52 1096.81 L234.52 1104.96 L229.868 1104.96 L229.868 1096.81 L214.266 1096.81 L214.266 1092.3 L228.641 1070.4 Z" fill="#000000" fill-rule="nonzero" fill-opacity="1" /><path clip-path="url(#clip990)" d="M178.387 893.391 L208.062 893.391 L208.062 897.326 L178.387 897.326 L178.387 893.391 Z" fill="#000000" fill-rule="nonzero" fill-opacity="1" /><path clip-path="url(#clip990)" d="M232.321 891.585 Q235.678 892.303 237.553 894.571 Q239.451 896.84 239.451 900.173 Q239.451 905.289 235.933 908.09 Q232.414 910.891 225.933 910.891 Q223.757 910.891 221.442 910.451 Q219.15 910.034 216.697 909.178 L216.697 904.664 Q218.641 905.798 220.956 906.377 Q223.271 906.956 225.794 906.956 Q230.192 906.956 232.483 905.22 Q234.798 903.483 234.798 900.173 Q234.798 897.118 232.646 895.405 Q230.516 893.669 226.696 893.669 L222.669 893.669 L222.669 889.826 L226.882 889.826 Q230.331 889.826 232.159 888.46 Q233.988 887.072 233.988 884.479 Q233.988 881.817 232.09 880.405 Q230.215 878.97 226.696 878.97 Q224.775 878.97 222.576 879.386 Q220.377 879.803 217.738 880.683 L217.738 876.516 Q220.4 875.775 222.715 875.405 Q225.053 875.035 227.113 875.035 Q232.437 875.035 235.539 877.465 Q238.641 879.873 238.641 883.993 Q238.641 886.863 236.997 888.854 Q235.354 890.822 232.321 891.585 Z" fill="#000000" fill-rule="nonzero" fill-opacity="1" /><path clip-path="url(#clip990)" d="M179.336 698.653 L209.011 698.653 L209.011 702.588 L179.336 702.588 L179.336 698.653 Z" fill="#000000" fill-rule="nonzero" fill-opacity="1" /><path clip-path="url(#clip990)" d="M223.132 711.547 L239.451 711.547 L239.451 715.482 L217.507 715.482 L217.507 711.547 Q220.169 708.792 224.752 704.162 Q229.358 699.51 230.539 698.167 Q232.784 695.644 233.664 693.908 Q234.567 692.149 234.567 690.459 Q234.567 687.704 232.622 685.968 Q230.701 684.232 227.599 684.232 Q225.4 684.232 222.946 684.996 Q220.516 685.76 217.738 687.311 L217.738 682.588 Q220.562 681.454 223.016 680.876 Q225.47 680.297 227.507 680.297 Q232.877 680.297 236.071 682.982 Q239.266 685.667 239.266 690.158 Q239.266 692.287 238.456 694.209 Q237.669 696.107 235.562 698.699 Q234.983 699.371 231.882 702.588 Q228.78 705.783 223.132 711.547 Z" fill="#000000" fill-rule="nonzero" fill-opacity="1" /><path clip-path="url(#clip990)" d="M178.965 503.915 L208.641 503.915 L208.641 507.851 L178.965 507.851 L178.965 503.915 Z" fill="#000000" fill-rule="nonzero" fill-opacity="1" /><path clip-path="url(#clip990)" d="M219.544 516.809 L227.183 516.809 L227.183 490.443 L218.872 492.11 L218.872 487.851 L227.136 486.184 L231.812 486.184 L231.812 516.809 L239.451 516.809 L239.451 520.744 L219.544 520.744 L219.544 516.809 Z" fill="#000000" fill-rule="nonzero" fill-opacity="1" /><path clip-path="url(#clip990)" d="M227.507 294.525 Q223.896 294.525 222.067 298.09 Q220.261 301.631 220.261 308.761 Q220.261 315.867 222.067 319.432 Q223.896 322.974 227.507 322.974 Q231.141 322.974 232.946 319.432 Q234.775 315.867 234.775 308.761 Q234.775 301.631 232.946 298.09 Q231.141 294.525 227.507 294.525 M227.507 290.821 Q233.317 290.821 236.372 295.428 Q239.451 300.011 239.451 308.761 Q239.451 317.488 236.372 322.094 Q233.317 326.678 227.507 326.678 Q221.696 326.678 218.618 322.094 Q215.562 317.488 215.562 308.761 Q215.562 300.011 218.618 295.428 Q221.696 290.821 227.507 290.821 Z" fill="#000000" fill-rule="nonzero" fill-opacity="1" /><path clip-path="url(#clip990)" d="M219.544 127.333 L227.183 127.333 L227.183 100.968 L218.872 102.634 L218.872 98.3752 L227.136 96.7086 L231.812 96.7086 L231.812 127.333 L239.451 127.333 L239.451 131.269 L219.544 131.269 L219.544 127.333 Z" fill="#000000" fill-rule="nonzero" fill-opacity="1" /><path clip-path="url(#clip990)" d="M126.996 947.047 L79.4763 965.189 L79.4763 958.473 L119.485 943.418 L79.4763 928.332 L79.4763 921.648 L126.996 939.758 L126.996 947.047 Z" fill="#000000" fill-rule="nonzero" fill-opacity="1" /><path clip-path="url(#clip990)" d="M109.077 903.824 Q109.077 910.921 110.7 913.659 Q112.323 916.396 116.238 916.396 Q119.357 916.396 121.203 914.359 Q123.018 912.29 123.018 908.757 Q123.018 903.887 119.58 900.959 Q116.111 897.999 110.382 897.999 L109.077 897.999 L109.077 903.824 M106.658 892.143 L126.996 892.143 L126.996 897.999 L121.585 897.999 Q124.832 900.004 126.392 902.996 Q127.919 905.988 127.919 910.317 Q127.919 915.791 124.864 919.038 Q121.776 922.252 116.62 922.252 Q110.605 922.252 107.549 918.242 Q104.494 914.2 104.494 906.211 L104.494 897.999 L103.921 897.999 Q99.8784 897.999 97.6822 900.673 Q95.4542 903.314 95.4542 908.12 Q95.4542 911.176 96.1863 914.072 Q96.9183 916.969 98.3824 919.642 L92.9716 919.642 Q91.7303 916.428 91.1255 913.404 Q90.489 910.38 90.489 907.516 Q90.489 899.781 94.4994 895.962 Q98.5097 892.143 106.658 892.143 Z" fill="#000000" fill-rule="nonzero" fill-opacity="1" /><path clip-path="url(#clip990)" d="M77.4711 880.08 L77.4711 874.223 L126.996 874.223 L126.996 880.08 L77.4711 880.08 Z" fill="#000000" fill-rule="nonzero" fill-opacity="1" /><path clip-path="url(#clip990)" d="M112.928 862.574 L91.3483 862.574 L91.3483 856.717 L112.705 856.717 Q117.766 856.717 120.312 854.744 Q122.827 852.771 122.827 848.824 Q122.827 844.081 119.803 841.344 Q116.779 838.575 111.559 838.575 L91.3483 838.575 L91.3483 832.719 L126.996 832.719 L126.996 838.575 L121.522 838.575 Q124.768 840.708 126.36 843.54 Q127.919 846.341 127.919 850.065 Q127.919 856.208 124.1 859.391 Q120.28 862.574 112.928 862.574 M90.489 847.837 L90.489 847.837 Z" fill="#000000" fill-rule="nonzero" fill-opacity="1" /><path clip-path="url(#clip990)" d="M107.708 790.164 L110.573 790.164 L110.573 817.091 Q116.62 816.709 119.803 813.462 Q122.954 810.184 122.954 804.359 Q122.954 800.986 122.127 797.835 Q121.299 794.652 119.644 791.533 L125.182 791.533 Q126.519 794.684 127.219 797.994 Q127.919 801.304 127.919 804.71 Q127.919 813.24 122.954 818.237 Q117.989 823.202 109.522 823.202 Q100.77 823.202 95.6452 818.491 Q90.489 813.749 90.489 805.728 Q90.489 798.535 95.1359 794.365 Q99.7511 790.164 107.708 790.164 M105.989 796.02 Q101.183 796.084 98.3188 798.726 Q95.4542 801.336 95.4542 805.664 Q95.4542 810.566 98.2233 813.526 Q100.992 816.454 106.021 816.9 L105.989 796.02 Z" fill="#000000" fill-rule="nonzero" fill-opacity="1" /><path clip-path="url(#clip990)" d="M77.4711 741.785 L82.3409 741.785 L82.3409 747.386 Q82.3409 750.537 83.614 751.779 Q84.8871 752.988 88.1973 752.988 L91.3483 752.988 L91.3483 743.344 L95.8998 743.344 L95.8998 752.988 L126.996 752.988 L126.996 758.876 L95.8998 758.876 L95.8998 764.478 L91.3483 764.478 L91.3483 758.876 L88.8657 758.876 Q82.9138 758.876 80.2083 756.107 Q77.4711 753.338 77.4711 747.323 L77.4711 741.785 Z" fill="#000000" fill-rule="nonzero" fill-opacity="1" /><path clip-path="url(#clip990)" d="M112.928 737.488 L91.3483 737.488 L91.3483 731.631 L112.705 731.631 Q117.766 731.631 120.312 729.658 Q122.827 727.685 122.827 723.738 Q122.827 718.995 119.803 716.258 Q116.779 713.489 111.559 713.489 L91.3483 713.489 L91.3483 707.633 L126.996 707.633 L126.996 713.489 L121.522 713.489 Q124.768 715.622 126.36 718.454 Q127.919 721.255 127.919 724.979 Q127.919 731.122 124.1 734.305 Q120.28 737.488 112.928 737.488 M90.489 722.751 L90.489 722.751 Z" fill="#000000" fill-rule="nonzero" fill-opacity="1" /><path clip-path="url(#clip990)" d="M105.48 665.937 L126.996 665.937 L126.996 671.794 L105.671 671.794 Q100.61 671.794 98.096 673.767 Q95.5815 675.74 95.5815 679.687 Q95.5815 684.43 98.6052 687.167 Q101.629 689.904 106.849 689.904 L126.996 689.904 L126.996 695.792 L91.3483 695.792 L91.3483 689.904 L96.8865 689.904 Q93.6718 687.803 92.0804 684.971 Q90.489 682.106 90.489 678.382 Q90.489 672.239 94.3084 669.088 Q98.096 665.937 105.48 665.937 Z" fill="#000000" fill-rule="nonzero" fill-opacity="1" /><path clip-path="url(#clip990)" d="M92.717 628.602 L98.1915 628.602 Q96.8228 631.085 96.1544 633.599 Q95.4542 636.082 95.4542 638.628 Q95.4542 644.326 99.0827 647.477 Q102.679 650.628 109.204 650.628 Q115.729 650.628 119.357 647.477 Q122.954 644.326 122.954 638.628 Q122.954 636.082 122.286 633.599 Q121.585 631.085 120.217 628.602 L125.628 628.602 Q126.773 631.053 127.346 633.695 Q127.919 636.305 127.919 639.265 Q127.919 647.317 122.859 652.06 Q117.798 656.802 109.204 656.802 Q100.483 656.802 95.486 652.028 Q90.489 647.222 90.489 638.883 Q90.489 636.177 91.0619 633.599 Q91.603 631.021 92.717 628.602 Z" fill="#000000" fill-rule="nonzero" fill-opacity="1" /><path clip-path="url(#clip990)" d="M81.2269 612.624 L91.3483 612.624 L91.3483 600.561 L95.8998 600.561 L95.8998 612.624 L115.252 612.624 Q119.612 612.624 120.853 611.447 Q122.095 610.237 122.095 606.577 L122.095 600.561 L126.996 600.561 L126.996 606.577 Q126.996 613.356 124.482 615.935 Q121.936 618.513 115.252 618.513 L95.8998 618.513 L95.8998 622.81 L91.3483 622.81 L91.3483 618.513 L81.2269 618.513 L81.2269 612.624 Z" fill="#000000" fill-rule="nonzero" fill-opacity="1" /><path clip-path="url(#clip990)" d="M91.3483 592.859 L91.3483 587.002 L126.996 587.002 L126.996 592.859 L91.3483 592.859 M77.4711 592.859 L77.4711 587.002 L84.8871 587.002 L84.8871 592.859 L77.4711 592.859 Z" fill="#000000" fill-rule="nonzero" fill-opacity="1" /><path clip-path="url(#clip990)" d="M95.4542 560.935 Q95.4542 565.645 99.1463 568.383 Q102.807 571.12 109.204 571.12 Q115.602 571.12 119.294 568.415 Q122.954 565.677 122.954 560.935 Q122.954 556.256 119.262 553.519 Q115.57 550.782 109.204 550.782 Q102.87 550.782 99.1781 553.519 Q95.4542 556.256 95.4542 560.935 M90.489 560.935 Q90.489 553.296 95.4542 548.935 Q100.419 544.575 109.204 544.575 Q117.957 544.575 122.954 548.935 Q127.919 553.296 127.919 560.935 Q127.919 568.606 122.954 572.966 Q117.957 577.295 109.204 577.295 Q100.419 577.295 95.4542 572.966 Q90.489 568.606 90.489 560.935 Z" fill="#000000" fill-rule="nonzero" fill-opacity="1" /><path clip-path="url(#clip990)" d="M105.48 505.235 L126.996 505.235 L126.996 511.091 L105.671 511.091 Q100.61 511.091 98.096 513.065 Q95.5815 515.038 95.5815 518.985 Q95.5815 523.727 98.6052 526.465 Q101.629 529.202 106.849 529.202 L126.996 529.202 L126.996 535.09 L91.3483 535.09 L91.3483 529.202 L96.8865 529.202 Q93.6718 527.101 92.0804 524.268 Q90.489 521.404 90.489 517.68 Q90.489 511.537 94.3084 508.386 Q98.096 505.235 105.48 505.235 Z" fill="#000000" fill-rule="nonzero" fill-opacity="1" /><polyline clip-path="url(#clip992)" style="stroke:#009af9; stroke-linecap:round; stroke-linejoin:round; stroke-width:12; stroke-opacity:1; fill:none" points="332.46,1324.81 341.961,1319.38 351.463,1313.52 360.964,1307.62 370.466,1301.72 379.967,1295.82 389.469,1289.92 398.97,1284.02 408.472,1278.12 417.973,1272.22 427.475,1266.31 436.976,1260.41 446.478,1254.51 455.979,1248.61 465.481,1242.71 474.982,1236.81 484.483,1230.91 493.985,1225.01 503.486,1219.11 512.988,1213.2 522.489,1207.3 531.991,1201.4 541.492,1195.5 550.994,1189.6 560.495,1183.7 569.997,1177.8 579.498,1171.9 589,1166 598.501,1160.09 608.003,1154.19 617.504,1148.29 627.006,1142.39 636.507,1136.49 646.009,1130.59 655.51,1124.69 665.012,1118.79 674.513,1112.89 684.014,1106.98 693.516,1101.08 703.017,1095.18 712.519,1089.28 722.02,1083.38 731.522,1077.48 741.023,1071.58 750.525,1065.68 760.026,1059.77 769.528,1053.87 779.029,1047.97 788.531,1042.07 798.032,1036.17 807.534,1030.27 817.035,1024.37 826.537,1018.47 836.038,1012.57 845.54,1006.66 855.041,1000.76 864.542,994.862 874.044,988.961 883.545,983.06 893.047,977.159 902.548,971.258 912.05,965.357 921.551,959.455 931.053,953.554 940.554,947.653 950.056,941.752 959.557,935.851 969.059,929.95 978.56,924.049 988.062,918.147 997.563,912.246 1007.06,906.345 1016.57,900.444 1026.07,894.543 1035.57,888.642 1045.07,882.741 1054.57,876.839 1064.07,870.938 1073.57,865.037 1083.08,859.136 1092.58,853.235 1102.08,847.334 1111.58,841.433 1121.08,835.531 1130.58,829.63 1140.09,823.729 1149.59,817.828 1159.09,811.927 1168.59,806.026 1178.09,800.125 1187.59,794.223 1197.09,788.322 1206.6,782.421 1216.1,776.52 1225.6,770.619 1235.1,764.718 1244.6,758.817 1254.1,752.915 1263.6,747.014 1273.11,741.113 1282.61,735.212 1292.11,729.311 1301.61,723.41 1311.11,717.509 1320.61,711.607 1330.11,705.706 1339.62,699.805 1349.12,693.904 1358.62,688.003 1368.12,682.102 1377.62,676.201 1387.12,670.299 1396.63,664.398 1406.13,658.497 1415.63,652.596 1425.13,646.695 1434.63,640.794 1444.13,634.893 1453.63,628.991 1463.14,623.09 1472.64,617.189 1482.14,611.288 1491.64,605.387 1501.14,599.486 1510.64,593.585 1520.14,587.683 1529.65,581.782 1539.15,575.881 1548.65,569.98 1558.15,564.079 1567.65,558.178 1577.15,552.277 1586.65,546.375 1596.16,540.474 1605.66,534.573 1615.16,528.672 1624.66,522.771 1634.16,516.87 1643.66,510.968 1653.16,505.067 1662.67,499.166 1672.17,493.265 1681.67,487.364 1691.17,481.463 1700.67,475.562 1710.17,469.66 1719.68,463.759 1729.18,457.858 1738.68,451.957 1748.18,446.056 1757.68,440.155 1767.18,434.254 1776.68,428.352 1786.19,422.451 1795.69,416.55 1805.19,410.649 1814.69,404.748 1824.19,398.847 1833.69,392.946 1843.19,387.044 1852.7,381.143 1862.2,375.242 1871.7,369.341 1881.2,363.44 1890.7,357.539 1900.2,351.638 1909.7,345.736 1919.21,339.835 1928.71,333.934 1938.21,328.033 1947.71,322.132 1957.21,316.231 1966.71,310.33 1976.22,304.428 1985.72,298.527 1995.22,292.626 2004.72,286.725 2014.22,280.824 2023.72,274.923 2033.22,269.022 2042.73,263.12 2052.23,257.219 2061.73,251.318 2071.23,245.417 2080.73,239.516 2090.23,233.615 2099.73,227.714 2109.24,221.812 2118.74,215.911 2128.24,210.01 2137.74,204.109 2147.24,198.208 2156.74,192.307 2166.24,186.406 2175.75,180.504 2185.25,174.603 2194.75,168.702 2204.25,162.801 2213.75,156.904 2223.25,151.042 2232.75,145.612 "/>
<path clip-path="url(#clip990)" d="M342.595 255.581 L575.693 255.581 L575.693 151.901 L342.595 151.901  Z" fill="#ffffff" fill-rule="evenodd" fill-opacity="1"/>
<polyline clip-path="url(#clip990)" style="stroke:#000000; stroke-linecap:round; stroke-linejoin:round; stroke-width:4; stroke-opacity:1; fill:none" points="342.595,255.581 575.693,255.581 575.693,151.901 342.595,151.901 342.595,255.581 "/>
<polyline clip-path="url(#clip990)" style="stroke:#009af9; stroke-linecap:round; stroke-linejoin:round; stroke-width:12; stroke-opacity:1; fill:none" points="364.976,203.741 499.264,203.741 "/>
<path clip-path="url(#clip990)" d="M534.839 221.021 L521.645 186.461 L526.529 186.461 L537.478 215.558 L548.45 186.461 L553.311 186.461 L540.14 221.021 L534.839 221.021 Z" fill="#000000" fill-rule="nonzero" fill-opacity="1" /></svg>